<svg data-v-423bf9ae="" xmlns="http://www.w3.org/2000/svg" viewBox="0 0 186.62149838577002 60" class="font"><!----><!----><!----><g data-v-423bf9ae="" id="f68dd52d-cbd2-4140-a7dc-3a0289ad887e" fill="#B3A09D" transform="matrix(5.808325290679932,0,0,5.808325290679932,1.2778370380401611,-21.31655502319336)"><path d="M6.40 13.80L6.23 13.33L6.55 13.24Q6.89 13.16 7.04 13.02Q7.18 12.88 7.18 12.63L7.18 12.63Q7.18 12.40 7.03 11.94L7.03 11.94L6.36 9.98L3.12 9.98L2.79 11.00Q2.46 11.97 2.46 12.47L2.46 12.47Q2.46 12.95 2.66 13.33L2.66 13.33L2.79 13.58L2.52 13.80L-0.06 13.80L-0.22 13.33L0.10 13.24Q0.66 13.09 0.91 12.84Q1.16 12.59 1.39 11.94L1.39 11.94L3.58 5.61Q3.74 5.15 3.74 4.93L3.74 4.93Q3.74 4.68 3.59 4.54Q3.44 4.40 3.11 4.31L3.11 4.31L2.79 4.23L2.95 3.75L5.66 3.75L8.47 11.87Q8.69 12.52 8.96 12.85Q9.23 13.19 9.73 13.58L9.73 13.58L9.55 13.80L6.40 13.80ZM4.72 5.19L3.42 9.11L6.06 9.11L4.72 5.19ZM12.74 11.56Q12.74 12.22 12.84 12.61Q12.94 13.01 13.19 13.37L13.19 13.37L13.36 13.59L13.19 13.80L10.74 13.80L10.58 13.37L10.88 13.30Q11.23 13.22 11.35 13.00Q11.47 12.78 11.47 12.25L11.47 12.25L11.47 8.32Q11.47 8.15 11.40 8.08Q11.34 8.01 11.19 8.01L11.19 8.01L10.57 8.01L10.44 7.64Q10.85 7.28 11.38 7.04Q11.90 6.80 12.29 6.80L12.29 6.80Q12.49 6.80 12.61 6.93Q12.74 7.06 12.74 7.25L12.74 7.25L12.74 8.75Q13.10 7.83 13.80 7.25Q14.50 6.66 15.27 6.66L15.27 6.66Q16.13 6.66 16.56 7.17Q17.00 7.67 17.07 8.75L17.07 8.75Q17.43 7.83 18.13 7.25Q18.83 6.66 19.60 6.66L19.60 6.66Q20.54 6.66 20.96 7.27Q21.39 7.87 21.39 9.18L21.39 9.18L21.39 12.57Q21.39 13.05 21.81 13.05L21.81 13.05Q22.13 13.05 22.51 12.75L22.51 12.75L22.78 13.12Q22.41 13.52 21.99 13.76Q21.57 14 21.21 14L21.21 14Q20.64 14 20.38 13.65Q20.13 13.30 20.13 12.52L20.13 12.52L20.13 9.18Q20.13 7.76 19.10 7.76L19.10 7.76Q18.51 7.76 18.06 8.21Q17.61 8.67 17.35 9.49Q17.08 10.32 17.07 11.40L17.07 11.40L17.07 11.56Q17.07 12.29 17.19 12.72Q17.30 13.15 17.68 13.59L17.68 13.59L17.51 13.80L15.81 13.80L15.81 9.18Q15.81 7.76 14.77 7.76L14.77 7.76Q14.17 7.76 13.71 8.23Q13.26 8.71 13.00 9.58Q12.74 10.44 12.74 11.56L12.74 11.56ZM24.35 4.59Q24.35 4.33 24.65 4.00Q24.95 3.67 25.20 3.67L25.20 3.67Q25.47 3.67 25.77 3.99Q26.08 4.31 26.08 4.59L26.08 4.59Q26.08 4.86 25.77 5.18Q25.47 5.50 25.20 5.50L25.20 5.50Q24.96 5.50 24.65 5.18Q24.35 4.86 24.35 4.59L24.35 4.59ZM25.83 12.57Q25.83 13.05 26.25 13.05L26.25 13.05Q26.60 13.05 26.95 12.75L26.95 12.75L27.22 13.12Q26.85 13.52 26.43 13.76Q26.01 14 25.65 14L25.65 14Q25.07 14 24.82 13.65Q24.57 13.30 24.57 12.52L24.57 12.52L24.57 8.18Q24.57 8.01 24.51 7.94Q24.44 7.87 24.29 7.87L24.29 7.87L23.67 7.87L23.55 7.50Q23.95 7.14 24.47 6.90Q24.99 6.66 25.40 6.66L25.40 6.66Q25.59 6.66 25.72 6.79Q25.84 6.92 25.84 7.11L25.84 7.11L25.83 12.57ZM30.09 6.85L31.91 6.85Q31.91 7.14 31.82 7.38Q31.74 7.62 31.58 7.73L31.58 7.73L30.09 7.73L30.09 12.24Q30.09 12.67 30.21 12.85Q30.34 13.03 30.62 13.03L30.62 13.03Q31.04 13.03 31.57 12.59L31.57 12.59L31.84 12.95Q31.47 13.43 30.97 13.71Q30.46 14 30.02 14L30.02 14Q29.44 14 29.13 13.64Q28.81 13.29 28.81 12.66L28.81 12.66L28.81 7.73L27.58 7.73Q27.58 7.35 27.64 7.24Q27.69 7.13 27.92 7.07L27.92 7.07Q28.66 6.87 28.97 6.43Q29.29 5.99 29.43 5.29L29.43 5.29Q29.47 5.07 29.58 5.01Q29.68 4.96 30.09 4.96L30.09 4.96L30.09 6.85Z"></path></g><!----><!----></svg>